{
   "accessors" : [
      {
         "bufferView" : 2,
         "byteOffset" : 0,
         "componentType" : 5126,
         "count" : 19944,
         "max" : [ 1, 0.835527777671814, 0.3392233550548553, 1 ],
         "min" : [ 0.05637409910559654, 0.1011451631784439, 0.03994716703891754, 1 ],
         "name" : "accessor_color_m0-PolyPaper20_-222040",
         "type" : "VEC4"
      },
      {
         "bufferView" : 2,
         "byteOffset" : 319104,
         "componentType" : 5126,
         "count" : 19986,
         "max" : [ 1, 0.835527777671814, 0.3392233550548553, 1 ],
         "min" : [ 0.05637409910559654, 0.08919350802898407, 0.03994716703891754, 1 ],
         "name" : "accessor_color_m2-PolyPaper16_-222052",
         "type" : "VEC4"
      },
      {
         "bufferView" : 2,
         "byteOffset" : 638880,
         "componentType" : 5126,
         "count" : 1574,
         "max" : [ 1, 0.835527777671814, 0.3392233550548553, 1 ],
         "min" : [ 0.1904628723859787, 0.08919350802898407, 0.03994716703891754, 1 ],
         "name" : "accessor_color_m3-PolyPaper12_-222058",
         "type" : "VEC4"
      },
      {
         "bufferView" : 0,
         "byteOffset" : 0,
         "componentType" : 5123,
         "count" : 22698,
         "max" : [ 19943 ],
         "min" : [ 0 ],
         "name" : "accessor_indices_0_m0-PolyPaper20_-222040",
         "type" : "SCALAR"
      },
      {
         "bufferView" : 0,
         "byteOffset" : 45396,
         "componentType" : 5123,
         "count" : 22986,
         "max" : [ 19985 ],
         "min" : [ 0 ],
         "name" : "accessor_indices_0_m2-PolyPaper16_-222052",
         "type" : "SCALAR"
      },
      {
         "bufferView" : 0,
         "byteOffset" : 91368,
         "componentType" : 5123,
         "count" : 2676,
         "max" : [ 1573 ],
         "min" : [ 0 ],
         "name" : "accessor_indices_0_m3-PolyPaper12_-222058",
         "type" : "SCALAR"
      },
      {
         "bufferView" : 1,
         "byteOffset" : 239328,
         "componentType" : 5126,
         "count" : 19944,
         "max" : [ 0.9999534, 1, 1 ],
         "min" : [ -0.9996647, -1, -0.9999969 ],
         "name" : "accessor_normal_m0-PolyPaper20_-222040",
         "type" : "VEC3"
      },
      {
         "bufferView" : 1,
         "byteOffset" : 718488,
         "componentType" : 5126,
         "count" : 19986,
         "max" : [ 0.9997572, 1, 0.9999688 ],
         "min" : [ -0.9988171, -1, -0.999867 ],
         "name" : "accessor_normal_m2-PolyPaper16_-222052",
         "type" : "VEC3"
      },
      {
         "bufferView" : 1,
         "byteOffset" : 977208,
         "componentType" : 5126,
         "count" : 1574,
         "max" : [ 0.9966091, 1, 0.9998674 ],
         "min" : [ -0.9969924999999999, -1, -0.9998674 ],
         "name" : "accessor_normal_m3-PolyPaper12_-222058",
         "type" : "VEC3"
      },
      {
         "bufferView" : 1,
         "byteOffset" : 0,
         "componentType" : 5126,
         "count" : 19944,
         "max" : [ 0.215032, -1.703323, 0.9849728 ],
         "min" : [ -1.294968, -2.526211, -0.525027 ],
         "name" : "accessor_position_m0-PolyPaper20_-222040",
         "type" : "VEC3"
      },
      {
         "bufferView" : 1,
         "byteOffset" : 478656,
         "componentType" : 5126,
         "count" : 19986,
         "max" : [ 0.1646504, -2.106001, 0.94629 ],
         "min" : [ -1.220757, -2.52798, -0.4445978 ],
         "name" : "accessor_position_m2-PolyPaper16_-222052",
         "type" : "VEC3"
      },
      {
         "bufferView" : 1,
         "byteOffset" : 958320,
         "componentType" : 5126,
         "count" : 1574,
         "max" : [ -0.1699471, -1.671589, 0.6879253 ],
         "min" : [ -0.8669236, -2.50009, -0.2719465 ],
         "name" : "accessor_position_m3-PolyPaper12_-222058",
         "type" : "VEC3"
      }
   ],
   "asset" : {
      "copyright" : "Unknown",
      "extras" : {
         "GOOGLE_processor_version" : 293297437
      },
      "generator" : "glTF 1-to-2 Upgrader for Google Blocks",
      "version" : "2.0"
   },
   "bufferViews" : [
      {
         "buffer" : 0,
         "byteLength" : 96720,
         "byteOffset" : 0,
         "name" : "ushortBufferView",
         "target" : 34963
      },
      {
         "buffer" : 0,
         "byteLength" : 996096,
         "byteOffset" : 96720,
         "byteStride" : 12,
         "name" : "vec3BufferView",
         "target" : 34962
      },
      {
         "buffer" : 0,
         "byteLength" : 664064,
         "byteOffset" : 1092816,
         "byteStride" : 16,
         "name" : "vec4BufferView",
         "target" : 34962
      }
   ],
   "buffers" : [
      {
         "byteLength" : 1756880,
         "name" : "chest",
         "uri" : "chest.bin"
      }
   ],
   "cameras" : [
      {
         "perspective" : {
            "yfov" : 0.7853981633974483,
            "znear" : 0.1000000014901161
         },
         "type" : "perspective"
      }
   ],
   "extensions" : {
      "KHR_lights_punctual" : {
         "lights" : [
            {
               "color" : [ 1, 0.9333333333333333, 0.8666666666666667 ],
               "intensity" : 0.25,
               "name" : "headLight",
               "type" : "directional"
            },
            {
               "color" : [ 1, 0.9333333333333333, 0.8666666666666667 ],
               "intensity" : 0.324999988079071,
               "name" : "keyLight",
               "type" : "directional"
            }
         ]
      }
   },
   "extensionsUsed" : [ "GOOGLE_backgrounds", "GOOGLE_camera_settings", "KHR_lights_punctual" ],
   "extras" : {
      "GOOGLE_initial_camera_motion" : {
         "motionPath" : "FULL_ROTATION"
      },
      "GOOGLE_lighting_rig" : {
         "disableShadows" : false
      }
   },
   "materials" : [
      {
         "alphaMode" : "OPAQUE",
         "doubleSided" : false,
         "name" : "BlocksPaper",
         "pbrMetallicRoughness" : {
            "baseColorFactor" : [ 1, 1, 1, 1 ],
            "metallicFactor" : 0,
            "roughnessFactor" : 0.6
         }
      },
      {
         "alphaMode" : "BLEND",
         "doubleSided" : false,
         "name" : "BlocksGlass",
         "pbrMetallicRoughness" : {
            "baseColorFactor" : [ 0.2, 0.2, 1, 0.3 ],
            "metallicFactor" : 1,
            "roughnessFactor" : 0.4
         }
      },
      {
         "alphaMode" : "OPAQUE",
         "doubleSided" : true,
         "name" : "BlocksGem",
         "pbrMetallicRoughness" : {
            "baseColorFactor" : [ 1, 0.4, 1, 1 ],
            "metallicFactor" : 0,
            "roughnessFactor" : 0.1
         }
      }
   ],
   "meshes" : [
      {
         "name" : "mesh_m0-PolyPaper20_-222040",
         "primitives" : [
            {
               "attributes" : {
                  "COLOR_0" : 0,
                  "NORMAL" : 6,
                  "POSITION" : 9
               },
               "indices" : 3,
               "material" : 0,
               "mode" : 4
            }
         ]
      },
      {
         "name" : "mesh_m2-PolyPaper16_-222052",
         "primitives" : [
            {
               "attributes" : {
                  "COLOR_0" : 1,
                  "NORMAL" : 7,
                  "POSITION" : 10
               },
               "indices" : 4,
               "material" : 0,
               "mode" : 4
            }
         ]
      },
      {
         "name" : "mesh_m3-PolyPaper12_-222058",
         "primitives" : [
            {
               "attributes" : {
                  "COLOR_0" : 2,
                  "NORMAL" : 8,
                  "POSITION" : 11
               },
               "indices" : 5,
               "material" : 0,
               "mode" : 4
            }
         ]
      }
   ],
   "nodes" : [
      {
         "mesh" : 0,
         "name" : "node_MeshObject-1836754944-PolyPaper20"
      },
      {
         "mesh" : 2,
         "name" : "node_MeshObject-692596736-PolyPaper12"
      },
      {
         "mesh" : 1,
         "name" : "node_MeshObject1886133248-PolyPaper16"
      },
      {
         "children" : [ 4 ]
      },
      {
         "children" : [ 5 ],
         "extras" : {
            "isTransformNode" : 1
         },
         "translation" : [ -0.5521562168273867, -2.217626137865691, 0.2337944539393551 ]
      },
      {
         "children" : [ 0, 2, 1 ],
         "translation" : [ 0.5521562168273867, 2.217626137865691, -0.2337944539393551 ]
      },
      {
         "camera" : 0,
         "children" : [ 7 ],
         "rotation" : [
            -0.2155061033032237,
            0.6581676055102189,
            0.2050882306399993,
            0.6916005640172367
         ],
         "translation" : [ 1.715890218561004, -0.6503027575539377, 0.3462086864278141 ]
      },
      {
         "extensions" : {
            "KHR_lights_punctual" : {
               "light" : 0
            }
         },
         "extras" : {
            "isHeadLight" : 1
         },
         "name" : "headLightNode",
         "translation" : [ -0.9779763870300282, 0.4889881935150141, 0.4889881935150141 ]
      },
      {
         "extensions" : {
            "KHR_lights_punctual" : {
               "light" : 1
            }
         },
         "extras" : {
            "isKeyLight" : 1
         },
         "name" : "keyLightNode",
         "rotation" : [ -0.7505326882858236, -0.3752663441429118, 0, 0.5439447166468927 ],
         "scale" : [ 0, 0, 0.9877561509003285 ],
         "translation" : [ -1.467873562283472, -0.4484908148221054, -0.7773763184242993 ]
      }
   ],
   "scene" : 0,
   "scenes" : [
      {
         "extensions" : {
            "GOOGLE_backgrounds" : {
               "color" : [ 0, 0.5882352941176471, 0.5333333333333333 ]
            },
            "GOOGLE_camera_settings" : {
               "pivot" : [ 0, 0, 0 ]
            }
         },
         "extras" : {
            "GOOGLE_camera_index" : {
               "cameraIndex" : 0,
               "nodeIndex" : 6
            },
            "GOOGLE_geometry_data" : {
               "stats" : {
                  "centroid" : [ -0.4801174113831432, -2.424003116622762, 0.2103798324760292 ],
                  "radius" : 0.9779763870300282,
                  "stdev" : 0.573182599938079
               },
               "visualCenterPoint" : [ -0.5521562168273867, -2.217626137865691, 0.2337944539393551 ]
            },
            "GOOGLE_hemi_light" : {
               "groundColor" : [ 0, 0.5882352941176471, 0.5333333333333333 ]
            }
         },
         "name" : "defaultScene",
         "nodes" : [ 3, 6, 8 ]
      }
   ]
}
